<!DOCTYPE svg PUBLIC "-//W3C//DTD SVG 1.1//EN" "http://www.w3.org/Graphics/SVG/1.1/DTD/svg11.dtd">
<!-- Uploaded to: SVG Repo, www.svgrepo.com, Transformed by: SVG Repo Mixer Tools -->
<svg fill="#F6F6DF" height="800px" width="800px" version="1.1" id="Capa_1" xmlns="http://www.w3.org/2000/svg" xmlns:xlink="http://www.w3.org/1999/xlink" viewBox="0 0 414.896 414.896" xml:space="preserve" stroke="#F6F6DF">
<g id="SVGRepo_bgCarrier" stroke-width="0"/>
<g id="SVGRepo_tracerCarrier" stroke-linecap="round" stroke-linejoin="round"/>
<g id="SVGRepo_iconCarrier"> <path d="M414.896,272.153l-38.538-53.306h-0.665V192.6h-40.245v-10.961h40.245V152.6h-40.245v-10.961h40.245v-24.132 c1.436,0.37,2.908,0.568,4.387,0.568c1.218,0,2.438-0.126,3.644-0.38c4.614-0.971,8.575-3.68,11.152-7.629 c2.577-3.949,3.462-8.666,2.491-13.279c-0.971-4.615-3.68-8.576-7.629-11.153c-3.949-2.577-8.666-3.461-13.282-2.491 c-4.154,0.874-7.855,3.215-10.422,6.594c-1.67,2.199-1.24,5.336,0.959,7.006c2.198,1.67,5.335,1.241,7.006-0.958 c1.11-1.463,2.714-2.477,4.516-2.855c2.002-0.423,4.047-0.038,5.759,1.08c1.712,1.117,2.887,2.834,3.308,4.836 c0.421,2,0.037,4.044-1.08,5.756c-1.117,1.712-2.834,2.887-4.837,3.308c-1.37,0.288-2.785,0.197-4.1-0.264L259.621,51.837 c-18.944-9.404-41.858-2.225-52.173,15.947c-10.313-18.173-33.229-25.35-52.088-15.988l-118.028,55.85 c-1.313,0.461-2.729,0.553-4.101,0.263c-2.002-0.421-3.719-1.596-4.836-3.308c-1.117-1.712-1.501-3.756-1.079-5.758 c0.42-2.001,1.595-3.718,3.307-4.835c1.712-1.117,3.76-1.5,5.759-1.08c1.802,0.379,3.405,1.393,4.516,2.855 c1.672,2.2,4.81,2.628,7.006,0.958c2.199-1.67,2.629-4.807,0.959-7.006c-2.566-3.378-6.268-5.72-10.422-6.594 c-4.614-0.969-9.334-0.086-13.282,2.491c-3.949,2.577-6.658,6.538-7.628,11.151c-0.972,4.615-0.087,9.331,2.49,13.281 c2.577,3.949,6.538,6.658,11.151,7.628c1.206,0.254,2.427,0.38,3.645,0.38c1.479,0,2.95-0.198,4.387-0.568v24.132h40.245V152.6 H39.203v29.039h40.245V192.6H39.203v26.247h-0.667L0,272.153v14.694h22.907c-2.865,3.726-4.361,8.28-4.239,13.04l0.429,45.564 c-0.721-0.143-1.484-0.142-2.249,0.026c-2.576,0.568-4.866,2.049-6.449,4.172c-1.755,2.357-2.487,5.256-2.061,8.164 c0.426,2.907,1.958,5.473,4.314,7.227c1.968,1.465,4.269,2.171,6.552,2.171c3.36,0,6.681-1.531,8.84-4.428 c1.254-1.686,1.996-3.683,2.146-5.774c0.01-0.147,0.015-0.296,0.014-0.444l-0.535-56.829c-0.001-0.034-0.001-0.069-0.002-0.103 c-0.072-2.558,0.855-4.99,2.613-6.849c1.757-1.86,4.134-2.923,6.692-2.995c1.781-0.054,3.419,0.587,4.691,1.79 c1.274,1.204,2.003,2.832,2.052,4.584c0.065,2.287-1.744,4.201-4.029,4.266c-0.74,0.027-1.484-0.349-1.915-0.993 c-1.689-2.526-5.105-3.202-7.63-1.513c-2.524,1.689-3.202,5.105-1.513,7.63c2.546,3.805,6.775,6.002,11.368,5.871 c8.35-0.237,14.95-7.223,14.715-15.571c-0.092-3.255-1.078-6.339-2.802-9.006h307.08c-1.724,2.667-2.71,5.75-2.802,9.005 c-0.235,8.349,6.365,15.335,14.717,15.572c4.581,0.139,8.82-2.067,11.366-5.872c1.689-2.525,1.012-5.94-1.513-7.63 c-2.524-1.688-5.94-1.013-7.63,1.513c-0.431,0.643-1.15,1.018-1.913,0.994c-2.287-0.065-4.096-1.979-4.031-4.267 c0.049-1.752,0.777-3.38,2.052-4.583c1.273-1.204,2.957-1.843,4.692-1.79c2.558,0.072,4.935,1.135,6.691,2.995 c1.758,1.859,2.686,4.292,2.613,6.849c-0.001,0.034-0.001,0.069-0.002,0.103l-0.535,56.829c-0.001,0.148,0.004,0.296,0.014,0.444 c0.149,2.092,0.892,4.088,2.148,5.777c2.157,2.896,5.477,4.426,8.836,4.426c2.283,0,4.585-0.707,6.551-2.171 c2.357-1.754,3.89-4.32,4.315-7.227c0.427-2.907-0.306-5.806-2.063-8.167c-1.581-2.12-3.871-3.6-6.447-4.168 c-0.766-0.169-1.528-0.169-2.249-0.026l0.429-45.564c0.122-4.761-1.374-9.315-4.239-13.04h22.907V272.153z M195.662,112.6 c5.032-2.934,9.021-7.044,11.786-11.81c2.765,4.765,6.753,8.876,11.785,11.81H195.662z M215.448,181.638h104V192.6h-104V181.638z M215.448,152.6v-10.961h104V152.6H215.448z M215.358,74.192c7.283-14.671,25.146-20.681,39.9-13.357L364.655,112.6H247.317 c4.413-2.646,7.992-6.493,10.336-11.214c5.58-11.245,0.973-24.935-10.27-30.518c-4.599-2.282-9.809-2.637-14.672-1.001 c-4.865,1.637-8.801,5.07-11.083,9.667c-1.228,2.474-0.218,5.474,2.256,6.702c2.472,1.227,5.473,0.219,6.701-2.255 c1.094-2.204,2.982-3.851,5.314-4.635c2.333-0.785,4.833-0.614,7.036,0.48c6.306,3.131,8.89,10.809,5.761,17.114 c-2.044,4.118-5.57,7.193-9.928,8.659c-4.354,1.466-9.023,1.148-13.143-0.897C214.384,99.121,209.778,85.434,215.358,74.192z M159.723,60.794c14.67-7.282,32.532-1.272,39.815,13.397c5.58,11.243,0.975,24.93-10.268,30.511 c-4.117,2.045-8.782,2.364-13.142,0.897c-4.357-1.466-7.884-4.541-9.928-8.658c-3.129-6.307-0.545-13.984,5.761-17.115 c2.204-1.096,4.704-1.265,7.036-0.48c2.333,0.785,4.221,2.431,5.314,4.635c1.227,2.473,4.23,3.482,6.701,2.255 c2.474-1.228,3.483-4.228,2.256-6.702c-2.282-4.597-6.218-8.03-11.083-9.667c-4.862-1.636-10.075-1.282-14.672,1.001 c-11.243,5.583-15.851,19.272-10.27,30.518c2.344,4.72,5.923,8.567,10.336,11.213H50.241L159.723,60.794z M199.448,141.638V152.6 h-104v-10.961H199.448z M199.448,181.638V192.6h-104v-10.961H199.448z M59.859,230.305h295.178l6.967,9H52.893L59.859,230.305z M35.72,261.305l7.741-10h327.975l7.741,10H35.72z"/> </g>
</svg>