<!DOCTYPE svg PUBLIC "-//W3C//DTD SVG 1.1//EN" "http://www.w3.org/Graphics/SVG/1.1/DTD/svg11.dtd">
<!-- Uploaded to: SVG Find, www.svgrepo.com, Transformed by: SVG Find Mixer Tools -->
<svg width="800px" height="800px" version="1.1" viewBox="144 144 512 512" xmlns="http://www.w3.org/2000/svg" fill="#F6F6DF" transform="matrix(-1, 0, 0, 1, 0, 0)">
<g id="SVGRepo_bgCarrier" stroke-width="0"/>
<g id="SVGRepo_tracerCarrier" stroke-linecap="round" stroke-linejoin="round"/>
<g id="SVGRepo_iconCarrier"> <defs> <clipPath id="e"> <path d="m489 560h67v91.902h-67z"/> </clipPath> <clipPath id="d"> <path d="m209 577h65v74.902h-65z"/> </clipPath> <clipPath id="c"> <path d="m154 641h479v10.902h-479z"/> </clipPath> <clipPath id="b"> <path d="m504 148.09h19v38.906h-19z"/> </clipPath> <clipPath id="a"> <path d="m375 576h29v75.902h-29z"/> </clipPath> </defs> <path d="m508.11 587.56h-306.96c-2.8984 0-5.25-2.3477-5.25-5.2461v-13.281c0.015625-12.895 5.1445-25.262 14.266-34.383 9.1211-9.1211 21.484-14.25 34.383-14.266h242.09l59.828-60.773-0.003906 0.003907c5.7852-5.9297 13.117-10.113 21.164-12.07 8.043-1.957 16.48-1.6133 24.34 0.99609l34.219 11.18h-0.003906c1.7344 0.57031 3.0469 2 3.4648 3.7773 0.42969 1.7695-0.085938 3.6367-1.3633 4.9336l-116.4 117.61c-1.0039 0.99609-2.3672 1.5469-3.7773 1.5234zm-301.71-10.496h299.5l108.89-110.21-26.238-8.5547c-5.9922-1.9766-12.422-2.2344-18.551-0.73828-6.1328 1.4922-11.723 4.6758-16.137 9.1875l-61.297 62.555c-0.98438 1.0039-2.3242 1.5703-3.7266 1.5742h-244.3c-10.113 0.015626-19.809 4.0391-26.961 11.191-7.1523 7.1523-11.176 16.848-11.191 26.961z"/> <g clip-path="url(#e)"> <path d="m533.25 651.9c-4.2578 0.007812-8.4219-1.2305-11.984-3.5625-3.5625-2.332-6.3633-5.6523-8.0625-9.5547l-23.723-54.371c-0.98047-2.6133 0.25391-5.5352 2.8125-6.6562 2.5547-1.1172 5.5391-0.039062 6.793 2.457l23.719 54.371c2.3555 5.3594 8.3945 8.0625 13.961 6.2422 3.0195-0.97266 5.4961-3.1641 6.8203-6.0469 1.3281-2.8828 1.3867-6.1914 0.16016-9.1172l-24.508-57.309c-0.69141-1.2969-0.80859-2.8203-0.32422-4.2031 0.48438-1.3828 1.5273-2.5039 2.875-3.0859 1.3477-0.57812 2.875-0.57031 4.2148 0.027344 1.3398 0.59375 2.3672 1.7266 2.8359 3.1133l24.562 57.152c2.918 6.7734 2.2305 14.559-1.832 20.711-4.0625 6.1562-10.949 9.8516-18.32 9.832z"/> </g> <g clip-path="url(#d)"> <path d="m229.44 651.9c-1.5352 0.007812-3.0703-0.16797-4.5664-0.52344-6.0039-1.4062-11.051-5.4492-13.73-11.004s-2.707-12.023-0.070313-17.598l19.051-42.613c1.1875-2.6523 4.3008-3.8398 6.9531-2.6523 2.6523 1.1875 3.8398 4.3008 2.6484 6.9531l-19.102 42.668c-1.3438 2.7305-1.3438 5.9297 0 8.6602 1.3008 2.6758 3.7578 4.6133 6.6641 5.2461 4.4922 1.0469 9.1133-1.125 11.18-5.2461l25.453-55.629c1.2031-2.6406 4.3164-3.8008 6.9531-2.5977 2.6367 1.2031 3.8008 4.3164 2.5977 6.9531l-25.504 55.68c-1.6797 3.4961-4.3047 6.4453-7.582 8.5156-3.2773 2.0703-7.0703 3.1758-10.945 3.1875z"/> </g> <g clip-path="url(#c)"> <path d="m627.55 651.9h-468.02c-2.8984 0-5.25-2.3477-5.25-5.2461s2.3516-5.25 5.25-5.25h468.02c2.8984 0 5.25 2.3516 5.25 5.25s-2.3516 5.2461-5.25 5.2461z"/> </g> <g clip-path="url(#b)"> <path d="m510.05 186.3c-0.46875 0.074219-0.94922 0.074219-1.418 0-1.4062-0.36328-2.5977-1.293-3.293-2.5664-0.69531-1.2695-0.83203-2.7734-0.38281-4.1523l7.7148-27.656c0.78516-2.7969 3.6875-4.4297 6.4844-3.6484s4.4297 3.6836 3.6445 6.4805l-7.7148 27.711c-0.63281 2.2578-2.6875 3.8242-5.0352 3.832z"/> </g> <g clip-path="url(#a)"> <path d="m380.32 651.9c-0.47266 0.078125-0.94922 0.078125-1.418 0-2.7773-0.78906-4.3945-3.6719-3.6211-6.4531l17.949-64.34c0.26172-1.4531 1.1211-2.7266 2.3672-3.5117 1.25-0.78516 2.7695-1.0078 4.1914-0.61719 1.4219 0.39453 2.6133 1.3672 3.2812 2.6797 0.66797 1.3125 0.75391 2.8477 0.23438 4.2305l-18.105 64.18c-0.61719 2.207-2.5938 3.7578-4.8789 3.832z"/> </g> <path d="m414.12 530.88c-0.47266 0.078126-0.94922 0.078126-1.418 0-1.3438-0.36719-2.4883-1.2539-3.1758-2.4648-0.6875-1.2109-0.86719-2.6445-0.5-3.9883l46.707-167.94h0.003906c0.78125-2.7969 3.6836-4.4297 6.4805-3.6484 2.7969 0.78516 4.4297 3.6875 3.6445 6.4844l-46.707 167.94v-0.003906c-0.70703 2.1797-2.7461 3.6445-5.0352 3.6211z"/> <path d="m640.09 372.5c-0.48438 0.074219-0.98047 0.074219-1.4688 0l-342.17-101.23c-1.5664-0.44141-2.8398-1.5859-3.4453-3.0977-0.60938-1.5078-0.48047-3.2148 0.34766-4.6172 20.758-37.16 53.57-66.125 93.012-82.117 39.445-15.992 83.168-18.051 123.94-5.8398h0.62891c40.922 11.898 76.551 37.418 100.99 72.328s36.23 77.121 33.41 119.64c-0.089844 1.5938-0.90234 3.0625-2.2031 3.9883-0.89453 0.62109-1.957 0.95312-3.0469 0.94531zm-334.25-109.37 329.31 97.195c1.0977-39.059-10.797-77.375-33.82-108.95-23.02-31.566-55.867-54.605-93.391-65.5h-0.57812c-37.402-11.207-77.469-9.707-113.93 4.2695-36.461 13.98-67.262 39.641-87.594 72.98z"/> <path d="m614.27 406.45c-0.48438 0.074219-0.98047 0.074219-1.4688 0l-83.234-25.086c-2.0273-0.60156-3.4961-2.3594-3.7227-4.4609l-3.043-29.965-20.57 25.191h-0.003906c-1.2812 1.5234-3.3125 2.1953-5.25 1.7305l-83.809-24.402c-2.1328-0.61719-3.6445-2.5078-3.7812-4.7227l-1.9961-30.492-19.891 26.238h0.003906c-1.3281 1.793-3.6406 2.5508-5.7734 1.8906l-85.383-26.344c-2.1797-0.6875-3.6641-2.7031-3.6758-4.9883v-44.816c0-2.8984 2.3516-5.2461 5.25-5.2461 2.8984 0 5.2461 2.3477 5.2461 5.2461v40.828l78.195 24.297 26.238-34.688h0.003906c1.3281-1.7266 3.5859-2.4531 5.6719-1.8242 2.0898 0.63281 3.5703 2.4844 3.7227 4.6602l2.7305 40.883 76.672 22.41 26.238-32.328v-0.003906c1.3398-1.6445 3.5391-2.3203 5.5742-1.7109 2.0312 0.60938 3.5 2.3828 3.7148 4.4922l3.9375 39.098 76.359 22.777 23.668-31.066c0.81641-1.1797 2.0742-1.9688 3.4922-2.1953 1.4141-0.22266 2.8555 0.14062 3.9961 1.0078 1.1406 0.86719 1.875 2.1641 2.0391 3.5859 0.16016 1.4219-0.26953 2.8516-1.1836 3.9492l-25.82 33.953v0.003907c-0.98047 1.3047-2.5117 2.082-4.1484 2.0977z"/> <path d="m526.89 339.07h-0.94531c-1.4141-0.23047-2.6719-1.0234-3.4844-2.2031-0.8125-1.1797-1.1094-2.6406-0.81641-4.043 15.742-83.496-1.4688-144.58-1.625-145.16h-0.003907c-0.40234-2.6172 1.2109-5.125 3.7617-5.8477 2.5469-0.71875 5.2344 0.57031 6.2617 3.0117 0.73438 2.5703 18.105 64.078 1.8906 150.04v0.003906c-0.49219 2.4062-2.582 4.1484-5.0391 4.1992z"/> <path d="m411.7 305.06c-0.60938 0-1.2148-0.10938-1.7852-0.31641-2.7188-0.96484-4.1484-3.9414-3.2031-6.6641 16.703-47.242 43.578-90.238 78.723-125.95 0.91797-1.2383 2.3359-2.0078 3.875-2.1055 1.5391-0.097657 3.043 0.48437 4.1133 1.5938 1.0703 1.1094 1.5977 2.6328 1.4453 4.168-0.15625 1.5312-0.97656 2.9219-2.2461 3.7969-33.781 34.746-59.68 76.363-75.938 122.02-0.75781 2.0977-2.7578 3.4844-4.9844 3.4648z"/> </g>
</svg>