<!DOCTYPE svg PUBLIC "-//W3C//DTD SVG 1.1//EN" "http://www.w3.org/Graphics/SVG/1.1/DTD/svg11.dtd">
<!-- Uploaded to: SVG Repo, www.svgrepo.com, Transformed by: SVG Repo Mixer Tools -->
<svg fill="#F6F6DF" height="800px" width="800px" version="1.1" id="Capa_1" xmlns="http://www.w3.org/2000/svg" xmlns:xlink="http://www.w3.org/1999/xlink" viewBox="0 0 467 467" xml:space="preserve">
<g id="SVGRepo_bgCarrier" stroke-width="0"/>
<g id="SVGRepo_tracerCarrier" stroke-linecap="round" stroke-linejoin="round"/>
<g id="SVGRepo_iconCarrier"> <path d="M259.33,134.5l21.025-82.48c9.657-5.132,16.102-11.965,9.858-12.757c-7.349-0.932-12.259-2.563-15.908-4.418 c-0.935-4.169-6.292-7.865-14.309-10.424c-3.811-8.14-12.515-14.118-22.975-15.228v-5.67c0-1.945-1.577-3.523-3.523-3.523 c-1.945,0-3.522,1.577-3.522,3.523v5.67c-10.459,1.109-19.163,7.087-22.974,15.227c-8.017,2.559-13.374,6.254-14.309,10.424 c-3.649,1.855-8.559,3.487-15.909,4.419c-6.244,0.792,0.201,7.625,9.86,12.758l21.025,82.479h12.573 c8.652,10.955-16.007,18.21-0.979,30.5c0.688,0,1.376,0,2.064,0v16.036h-4.081c-1.583,0-2.863,1.284-2.863,2.863 c0,1.581,1.279,2.863,2.863,2.863h4.081v2.677h-4.081c-1.583,0-2.863,1.283-2.863,2.863c0,1.579,1.279,2.863,2.863,2.863h4.081 V298.68h-4.081c-1.583,0-2.863,1.28-2.863,2.859c0,1.583,1.279,2.863,2.863,2.863h4.081v2.68h-4.081 c-1.583,0-2.863,1.281-2.863,2.86c0,1.583,1.279,2.863,2.863,2.863h4.081v45.199L216.318,358 c-4.07,25.689-8.138,51.378-12.207,77.068h-5.693V467h70.164v-31.932h-5.692c-4.069-25.69-8.137-51.379-12.206-77.068l-5.011,0.025 v-45.22h4.083c1.581,0,2.862-1.28,2.862-2.863c0-1.579-1.281-2.86-2.862-2.86h-4.083v-2.68h4.083c1.581,0,2.862-1.28,2.862-2.863 c0-1.58-1.281-2.859-2.862-2.859h-4.083V195.165h4.083c1.581,0,2.862-1.284,2.862-2.863c0-1.581-1.281-2.863-2.862-2.863h-4.083 v-2.677h4.083c1.581,0,2.862-1.282,2.862-2.863c0-1.58-1.281-2.863-2.862-2.863h-4.083V165c0.688,0,1.376,0,2.064,0 c15.026-12.289-9.629-19.545-0.978-30.5H259.33z M222.75,56.453c3.319,1.163,6.946,1.81,10.75,1.81s7.431-0.646,10.75-1.81V123 h-21.5V56.453z M253.25,121.916V57.134c2.421,0.406,4.963,0.626,7.587,0.626c2.898,0,6.022-0.556,9.141-1.466L253.25,121.916z M197.024,56.295c3.118,0.909,6.242,1.465,9.14,1.465c2.624,0,5.166-0.22,7.587-0.626v64.778L197.024,56.295z"/> </g>
</svg>