<!DOCTYPE svg PUBLIC "-//W3C//DTD SVG 1.1//EN" "http://www.w3.org/Graphics/SVG/1.1/DTD/svg11.dtd">
<!-- Uploaded to: SVG Find, www.svgrepo.com, Transformed by: SVG Find Mixer Tools -->
<svg fill="#F6F6DF" width="800px" height="800px" version="1.1" viewBox="144 144 512 512" xmlns="http://www.w3.org/2000/svg">
<g id="SVGRepo_bgCarrier" stroke-width="0"/>
<g id="SVGRepo_tracerCarrier" stroke-linecap="round" stroke-linejoin="round"/>
<g id="SVGRepo_iconCarrier"> <path d="m593.62 577.29h-1.9062v-335.58c0-29.754-24.168-53.988-53.922-53.988h-50.039c-2.2461-3.3359-6.0586-5.582-10.418-5.582h-13.547c-4.3555 0-8.1016 2.2461-10.348 5.582h-106.89c-2.2461-3.3359-5.9922-5.582-10.281-5.582h-13.547c-4.3555 0-8.168 2.2461-10.348 5.582h-50.109c-29.754 0-53.922 24.238-53.922 53.988v335.58h-1.9766c-10.555 0-19.062 8.5117-19.062 19.062v16.406c0 2.8594 2.2461 5.1055 5.1055 5.1055h70.191c2.793 0 5.1055-2.2461 5.1055-5.1055v-16.406c0-10.555-8.5781-19.062-19.062-19.062h-1.9062l0.003906-335.24c0-8.7148 7.082-15.863 15.797-15.863h49.77c2.1797 3.4023 5.9922 5.6523 10.348 5.6523h1.7031v6.2617c-6.7383 2.3828-11.508 9.2578-11.508 17.703 0 8.2383 4.832 15.113 11.508 17.566v7.2852c-6.7383 2.3828-11.508 9.2578-11.508 17.703 0 8.168 4.832 15.113 11.508 17.496v7.2852c-6.7383 2.3828-11.508 9.2578-11.508 17.703 0 8.2383 4.832 15.113 11.508 17.496v7.3516c-6.7383 2.3828-11.508 9.2578-11.508 17.703 0 8.168 4.832 15.047 11.508 17.496v6.332h-23.762c-12.254 0-22.262 9.9414-22.262 22.262v70.535c0 6.6055 5.3789 11.984 11.984 11.984h4.6289v17.09h-8.918c-10.895 0-19.812 8.8516-19.812 19.812 0 10.961 8.918 19.812 19.812 19.812h227.87c10.895 0 19.812-8.8516 19.812-19.812 0-10.961-8.918-19.812-19.812-19.812h-8.8516v-17.09h4.6289c6.6055 0 11.984-5.3789 11.984-11.984l-0.007813-70.539c0-12.324-10.008-22.262-22.262-22.262h-23.691v-6.332c6.6055-2.4492 11.508-9.3281 11.508-17.496 0-8.3047-4.9023-15.25-11.508-17.703v-7.3516c6.6055-2.3828 11.508-9.2578 11.508-17.496 0-8.2383-4.9023-15.25-11.508-17.633v-7.3516c6.6055-2.3828 11.508-9.3281 11.508-17.496 0-8.3047-4.9023-15.25-11.508-17.703v-7.2852c6.6055-2.4492 11.508-9.3281 11.508-17.566s-4.9023-15.184-11.508-17.633v-6.332h1.6328c4.3555 0 8.168-2.2461 10.348-5.6523h49.699c8.7148 0 15.797 7.1484 15.797 15.863v335.24h-1.9062c-10.484 0-19.062 8.5117-19.062 19.062v16.406c0 2.8594 2.3164 5.1055 5.1055 5.1055h70.191c2.793 0 5.1055-2.2461 5.1055-5.1055v-16.406c0.070312-10.551-8.5742-19.062-18.992-19.062zm-283.43-361.31h-47.656c-14.367 0-26.008 11.711-26.008 26.074l-0.003906 157.95h-18.043l0.003907-158.29c0-24.102 19.609-43.777 43.707-43.777h48zm38.465-18.043h102.67v18.109h-102.67zm-14.023 202.95c6.6055-2.4492 11.508-9.3281 11.508-17.496 0-8.3047-4.9023-15.25-11.508-17.703v-7.3516c6.6055-2.3828 11.508-9.2578 11.508-17.496 0-8.2383-4.9023-15.25-11.508-17.633v-7.3516c6.6055-2.3828 11.508-9.3281 11.508-17.496 0-8.3047-4.9023-15.25-11.508-17.703v-7.2852c6.6055-2.4492 11.508-9.3281 11.508-17.566s-4.9023-15.184-11.508-17.633v-6.332h1.6328c4.2891 0 8.1016-2.2461 10.348-5.582h106.89c2.2461 3.3359 6.0586 5.582 10.348 5.582h1.7031v6.2617c-6.7383 2.3828-11.574 9.2578-11.574 17.703 0 8.2383 4.9023 15.113 11.574 17.566v7.2852c-6.7383 2.3828-11.574 9.2578-11.574 17.703 0 8.168 4.9023 15.113 11.574 17.496v7.2852c-6.7383 2.3828-11.574 9.2578-11.574 17.703 0 8.2383 4.9023 15.113 11.574 17.496v7.3516c-6.7383 2.3828-11.574 9.2578-11.574 17.703 0 8.168 4.9023 15.047 11.574 17.496v6.332l-130.92-0.003906zm110.22 16.543v84.355h-23.148v-84.355zm-66.652 0v84.355h-23.078v-84.355zm-87.824 84.355c-0.95312 0-1.7695-0.81641-1.7695-1.7695v-70.535c0-6.6719 5.4453-12.051 12.051-12.051h11.031v84.355zm197.98-84.355h11.031c6.6055 0 12.051 5.3789 12.051 12.051v70.535c0 0.95312-0.81641 1.7695-1.7695 1.7695h-21.309zm7.5547 94.637v17.227l-191.79-0.003906v-17.227zm85.582-112.06h-18.113v-157.95c0-14.367-11.641-26.074-26.008-26.074h-47.59l0.003906-18.043h47.93c24.102 0 43.707 19.676 43.707 43.777v158.29z"/> </g>
</svg>